<?xml version="1.0" encoding="UTF-8" standalone="no"?>
<svg
   xmlns:dc="http://purl.org/dc/elements/1.1/"
   xmlns:cc="http://creativecommons.org/ns#"
   xmlns:rdf="http://www.w3.org/1999/02/22-rdf-syntax-ns#"
   xmlns:svg="http://www.w3.org/2000/svg"
   xmlns="http://www.w3.org/2000/svg"
   viewBox="0 0 256 255.99999"
   height="256"
   width="256"
   xml:space="preserve"
   id="svg46"
   version="1.1"><metadata
     id="metadata52"><rdf:RDF><cc:Work
         rdf:about=""><dc:format>image/svg+xml</dc:format><dc:type
           rdf:resource="http://purl.org/dc/dcmitype/StillImage" /><dc:title></dc:title></cc:Work></rdf:RDF></metadata><defs
     id="defs50"><clipPath
       id="clipPath62"
       clipPathUnits="userSpaceOnUse"><path
         id="path60"
         d="M 0,2000 H 2000 V 0 H 0 Z" /></clipPath></defs><g
     transform="matrix(1.3333333,0,0,-1.3333333,-1015.6665,1801.8086)"
     id="g54"><g
       id="g56"><g
         clip-path="url(#clipPath62)"
         id="g58"><ellipse
           style="fill:#b3b3b3;fill-rule:evenodd;stroke:#000000;stroke-width:7.5;stroke-linecap:round;stroke-linejoin:round;stroke-miterlimit:4;stroke-dasharray:none"
           id="path940"
           cx="857.74994"
           cy="-1255.3566"
           transform="scale(1,-1)"
           rx="92.250015"
           ry="92.249985" /><g
           id="g960"
           transform="translate(6.7210344,-5.5780091)"
           style="fill:#000000"><g
             transform="matrix(0.33621941,0,0,0.33621941,882.17064,1304.3973)"
             id="g154"
             style="stroke-width:2.97425;fill:#000000"><path
               id="path156"
               style="fill:#000000;fill-opacity:1;fill-rule:nonzero;stroke:none;stroke-width:2.97425"
               d="M 0,0 38.548,-39.021 51.62,-25.788 13.072,13.233 Z" /></g><g
             transform="matrix(0.33621941,0,0,0.33621941,833.72781,1295.4412)"
             id="g158"
             style="stroke-width:2.97425;fill:#000000"><path
               id="path160"
               style="fill:#000000;fill-opacity:1;fill-rule:nonzero;stroke:none;stroke-width:2.97425"
               d="M 0,0 10.09,-26.773 95.345,59.529 68.896,69.743 Z" /></g><g
             transform="matrix(0.33621941,0,0,0.33621941,886.27918,1242.2442)"
             id="g162"
             style="stroke-width:2.97425;fill:#000000"><path
               id="path164"
               style="fill:#000000;fill-opacity:1;fill-rule:nonzero;stroke:none;stroke-width:2.97425"
               d="M 0,0 68.896,69.743 58.808,96.516 -26.448,10.214 Z" /></g><g
             transform="matrix(0.33621941,0,0,0.33621941,875.33957,1247.7508)"
             id="g166"
             style="stroke-width:2.97425;fill:#000000"><path
               id="path168"
               style="fill:#000000;fill-opacity:1;fill-rule:nonzero;stroke:none;stroke-width:2.97425"
               d="M 0,0 85.255,86.303 -22.329,195.208 -107.584,108.906 Z" /></g><g
             transform="matrix(0.33621941,0,0,0.33621941,816.29857,1243.4528)"
             id="g170"
             style="stroke-width:2.97425;fill:#000000"><path
               id="path172"
               style="fill:#000000;fill-opacity:1;fill-rule:nonzero;stroke:none;stroke-width:2.97425"
               d="M 0,0 30.392,-66.353 132.56,36.712 84.559,85.187 Z" /></g><g
             transform="matrix(0.33621941,0,0,0.33621941,797.01423,1191.1889)"
             id="g174"
             style="stroke-width:2.97425;fill:#000000"><path
               id="path176"
               style="fill:#000000;fill-opacity:1;fill-rule:nonzero;stroke:none;stroke-width:2.97425"
               d="M 0,0 -7.218,-7.324 C -19.516,3.1 -30.777,14.735 -40.813,27.409 l -8.868,19.36 15.023,15.26 4.262,4.325 12.517,-27.334 z" /></g><g
             transform="matrix(0.33621941,0,0,0.33621941,813.78597,1240.9018)"
             id="g178"
             style="stroke-width:2.97425;fill:#000000"><path
               id="path180"
               style="fill:#000000;fill-opacity:1;fill-rule:nonzero;stroke:none;stroke-width:2.97425"
               d="m 0,0 -19.286,-19.581 30.392,-66.353 19.286,19.581 z" /></g><g
             transform="matrix(0.33621941,0,0,0.33621941,804.78897,1231.767)"
             id="g182"
             style="stroke-width:2.97425;fill:#000000"><path
               id="path184"
               style="fill:#000000;fill-opacity:1;fill-rule:nonzero;stroke:none;stroke-width:2.97425"
               d="m 0,0 -19.286,-19.581 30.392,-66.353 19.286,19.581 z" /></g><g
             transform="matrix(0.33621941,0,0,0.33621941,795.79198,1222.6323)"
             id="g186"
             style="stroke-width:2.97425;fill:#000000"><path
               id="path188"
               style="fill:#000000;fill-opacity:1;fill-rule:nonzero;stroke:none;stroke-width:2.97425"
               d="m 0,0 -19.286,-19.581 30.392,-66.353 19.286,19.581 z" /></g></g></g></g></g></svg>
